<svg width="326" height="70" viewBox="0 0 326 70" fill="none" xmlns="http://www.w3.org/2000/svg">
<path d="M66.4937 56.6043C65.0039 58.57 63.4779 60.39 61.9518 61.8825C60.7164 63.1929 59.3356 64.3578 57.8459 65.377C57.0102 65.9958 56.1381 66.5055 55.2661 66.9423C54.6484 67.2699 54.067 67.5611 53.413 67.8159C50.2518 69.1628 46.7636 69.9272 43.1301 69.9272C35.9357 69.9272 29.4317 67.0151 24.7445 62.2829C21.983 59.5164 17.7681 53.0733 17.7317 49.0692L17.1504 0C22.746 0.800832 25.9799 4.25897 26.7792 8.11753L26.9246 23.5153C31.3211 19.948 36.9894 17.8003 43.1664 17.8003C47.127 17.8003 50.8695 18.6739 54.2487 20.2756C57.7369 21.9137 60.8254 24.3162 63.2235 27.2647L70.6722 35.8554L79.3564 25.845L79.5744 25.6266C79.8651 25.3354 80.1558 25.0442 80.4464 24.7894C80.7371 24.5346 81.0641 24.2434 81.3548 23.9886C83.6803 22.0229 86.3327 20.4576 89.2032 19.402C92.0011 18.3463 95.0169 17.8003 98.1417 17.8003C102.139 17.8003 105.954 18.7104 109.406 20.3848C112.93 22.0957 116.055 24.571 118.453 27.6287L110.35 34.1082C108.897 32.2881 107.044 30.7956 104.9 29.7764C102.865 28.83 100.576 28.2475 98.1417 28.2475C96.2523 28.2475 94.4355 28.5751 92.8004 29.194C91.0563 29.8492 89.4576 30.7592 88.0769 31.9605C87.8952 32.1061 87.6772 32.2881 87.5318 32.4701C87.4228 32.5793 87.3138 32.6521 87.2411 32.7613L77.6123 43.8638L82.4449 49.4332L82.6992 49.7244C84.3343 51.9449 85.9331 53.8014 87.4591 55.221C87.9678 55.6942 88.4402 56.0946 88.9126 56.4587C89.8573 57.1503 90.911 57.7691 92.0374 58.2423C93.9268 59.0432 95.9979 59.5164 98.1781 59.5164C100.649 59.5164 102.938 58.9704 104.936 57.9875C107.044 56.9683 108.897 55.4758 110.387 53.6558L118.489 60.208C116.055 63.2293 112.967 65.7046 109.442 67.4155C106.026 69.0536 102.211 70 98.2144 70C94.5808 70 91.129 69.2356 87.9315 67.8887C87.3138 67.6339 86.6961 67.3427 86.1147 67.0151C85.2427 66.5783 84.407 66.0686 83.5349 65.4498C82.0452 64.4306 80.6644 63.2657 79.429 61.9553C77.8303 60.3536 76.1952 58.4243 74.5238 56.1674L70.7449 51.8357L55.3388 34.1082L55.2661 34.0354C53.8127 32.2517 51.9596 30.7956 49.8521 29.8128C47.8537 28.8664 45.6009 28.3567 43.2028 28.3567C38.9152 28.3567 34.991 30.104 32.1932 32.9433C29.359 35.7462 27.6149 39.6776 27.6149 43.973C27.6149 48.2683 29.359 52.1997 32.1932 55.0026C34.991 57.8055 38.9152 59.5892 43.2028 59.5892C45.3829 59.5892 47.4903 59.116 49.3434 58.3151C50.4698 57.8419 51.4872 57.2231 52.4683 56.5315C52.9406 56.1674 53.413 55.767 53.9217 55.2938C55.4478 53.8742 57.0465 52.0541 58.6816 49.7972L58.936 49.4696L59.59 48.7416L66.4937 56.6043Z" fill="#F1723F"/>
<path fill-rule="evenodd" clip-rule="evenodd" d="M77.5758 43.8274L70.6721 35.8555L72.7069 33.4894L79.6469 41.4249L77.5758 43.8274Z" fill="#B75227"/>
<path d="M11.1187 23.479L11.5911 68.4348L1.12653 68.5075L0.545166 15.2158C6.79483 16.0167 10.3194 19.2564 11.1187 23.479Z" fill="#F1723F"/>
<path fill-rule="evenodd" clip-rule="evenodd" d="M5.08694 10.2288C7.88475 10.2288 10.1739 7.93549 10.1739 5.13258C10.1739 2.32966 7.88475 0.036377 5.08694 0.036377C2.28912 0.036377 0 2.32966 0 5.13258C0 7.93549 2.28912 10.2288 5.08694 10.2288Z" fill="#F1723F"/>
<path d="M158.858 14.3787H160.166V26.828H157.731V19.8389L154.17 24.6803H153.262L149.665 19.8753V26.828H147.267V14.3787H148.575L153.771 21.4041L158.858 14.3787Z" fill="black"/>
<path d="M162.854 26.8279V14.4514H171.829V16.6719H165.253V19.6568H170.812V21.7681H165.253V24.6074H172.12V26.8279H162.854Z" fill="black"/>
<path d="M192.468 26.8279H189.234L184.184 21.0765V26.8279H181.749V21.0401L176.589 26.8279H173.465L179.024 20.5669L173.828 14.4514H177.025L181.713 20.2756V14.4514H184.147V20.2756L188.871 14.4514H191.923L186.836 20.4941L192.468 26.8279Z" fill="black"/>
<path d="M207.438 24.5347V29.7401H205.185V26.8279H195.92V29.7401H193.667V24.5347H194.975C195.665 23.9522 195.992 22.5326 195.992 20.3485V14.415H205.403V24.4982H207.438V24.5347ZM197.555 24.5347H202.969V16.7083H198.463V20.5305C198.463 22.4234 198.136 23.7702 197.555 24.5347Z" fill="black"/>
<path d="M216.885 14.4514H219.683L215.141 23.661C214.523 24.8987 213.942 25.7723 213.324 26.2819C212.743 26.7915 211.871 27.0463 210.781 27.0463C210.345 27.0463 209.909 27.01 209.473 26.9371V24.7531C209.836 24.7895 210.127 24.8259 210.345 24.8259C210.854 24.8259 211.29 24.7531 211.617 24.5711C211.944 24.389 212.271 24.0978 212.561 23.6246L207.765 14.415H210.599L212.961 19.3292L213.76 21.1493L214.56 19.2928L216.885 14.4514Z" fill="black"/>
<path d="M221.245 26.8279V14.4514H223.716V19.9844H229.384V14.4514H231.819V26.8279H229.384V22.2777H223.716V26.8279H221.245Z" fill="black"/>
<path d="M243.628 26.828L242.538 24.4619H237.124L236.07 26.828H233.381L239.05 14.3787H240.648L246.317 26.828H243.628ZM239.849 17.6548L238.904 20.2029L237.996 22.387H241.738L240.83 20.2029L239.849 17.6548Z" fill="black"/>
<path d="M252.857 14.4514C254.492 14.4514 255.728 14.8154 256.6 15.5799C257.435 16.3443 257.871 17.4363 257.871 18.8924C257.871 21.9501 256.127 23.479 252.603 23.479H250.423V26.8279H247.952V14.4514H252.857ZM252.494 21.2949C254.383 21.2949 255.292 20.5305 255.292 18.9652C255.292 17.3999 254.42 16.6355 252.675 16.6355H250.386V21.2949H252.494Z" fill="black"/>
<path d="M265.974 27.0828C264.048 27.0828 262.45 26.5003 261.214 25.2991C259.979 24.1343 259.361 22.569 259.361 20.6397C259.361 18.7468 259.979 17.1816 261.178 15.9803C262.377 14.7791 264.012 14.1967 265.974 14.1967C267.936 14.1967 269.535 14.7791 270.77 15.9803C272.006 17.1816 272.623 18.7104 272.623 20.6397C272.623 22.5326 272.006 24.0614 270.77 25.2627C269.571 26.4639 267.936 27.0828 265.974 27.0828ZM265.974 24.7531C267.173 24.7531 268.154 24.3891 268.917 23.6246C269.68 22.8602 270.044 21.8774 270.044 20.6397C270.044 19.4385 269.68 18.4556 268.917 17.6548C268.191 16.8904 267.173 16.4899 265.938 16.4899C264.739 16.4899 263.794 16.854 263.031 17.6184C262.268 18.3828 261.905 19.3657 261.905 20.6033C261.905 21.8046 262.268 22.7874 263.031 23.5518C263.794 24.3527 264.739 24.7531 265.974 24.7531Z" fill="black"/>
<path d="M287.412 24.5347V29.7401H285.159V26.8279H275.893V29.7401H273.641V24.5347H274.949C275.639 23.9522 275.966 22.5326 275.966 20.3485V14.415H285.377V24.4982H287.412V24.5347ZM277.529 24.5347H282.942V16.7083H278.437V20.5305C278.437 22.4234 278.11 23.7702 277.529 24.5347Z" fill="black"/>
<path d="M289.265 26.8279V14.4514H291.736V19.9844H297.404V14.4514H299.838V26.8279H297.404V22.2777H291.736V26.8279H289.265Z" fill="black"/>
<path d="M311.648 26.828L310.558 24.4619H305.144L304.09 26.828H301.401L307.069 14.3787H308.668L314.336 26.828H311.648ZM307.869 17.6548L306.924 20.2029L306.016 22.387H309.758L308.85 20.2029L307.869 17.6548Z" fill="black"/>
<path d="M320.55 14.4514H326V26.8279H323.529V23.297H321.204C320.986 23.297 320.804 23.297 320.695 23.297L318.406 26.8279H315.535L318.261 22.7873C316.734 22.0957 315.971 20.8217 315.971 18.856C315.971 17.3999 316.335 16.3079 317.098 15.5799C317.897 14.8154 319.024 14.4514 320.55 14.4514ZM321.313 21.1857H323.565V16.6355H321.095C320.223 16.6355 319.605 16.8175 319.205 17.2179C318.806 17.6183 318.624 18.1644 318.624 18.9288C318.588 20.4213 319.496 21.1857 321.313 21.1857Z" fill="black"/>
<path d="M152.899 40.0781C156.023 40.0781 157.586 41.3157 157.586 43.8274C157.586 45.1743 157.186 46.1935 156.35 46.8124C155.515 47.4312 154.279 47.7952 152.608 47.7952H147.267V35.4187H156.496V37.6028H149.701V40.0781H152.899ZM152.535 45.6839C154.207 45.6839 155.042 45.0651 155.042 43.8638C155.042 43.245 154.861 42.8082 154.497 42.5534C154.134 42.2622 153.553 42.1166 152.753 42.1166H149.701V45.6839H152.535Z" fill="black"/>
<path d="M169.322 35.3458H170.631V47.7951H168.16V39.9688L160.82 47.8679H159.512V35.4186H161.983V43.2813L169.322 35.3458Z" fill="black"/>
<path d="M179.351 48.0499C177.425 48.0499 175.826 47.4675 174.591 46.2663C173.355 45.1014 172.738 43.5362 172.738 41.6069C172.738 39.714 173.355 38.1487 174.555 36.9475C175.754 35.7463 177.389 35.1638 179.351 35.1638C181.313 35.1638 182.912 35.7463 184.147 36.9475C185.382 38.1487 186 39.6776 186 41.6069C186 43.4998 185.382 45.0286 184.147 46.2299C182.948 47.4311 181.313 48.0499 179.351 48.0499ZM179.351 45.7202C180.55 45.7202 181.531 45.3562 182.294 44.5918C183.057 43.8274 183.42 42.8445 183.42 41.6069C183.42 40.4056 183.057 39.4228 182.294 38.622C181.567 37.8575 180.55 37.4571 179.314 37.4571C178.115 37.4571 177.171 37.8211 176.408 38.5856C175.645 39.35 175.281 40.3328 175.281 41.5705C175.281 42.7717 175.645 43.7546 176.408 44.519C177.134 45.3198 178.115 45.7202 179.351 45.7202Z" fill="black"/>
<path d="M203.441 47.7952H200.207L194.866 42.0074V47.7952H192.395V35.4187H194.866V41.2065L199.735 35.4187H202.823L197.555 41.4613L203.441 47.7952Z" fill="black"/>
<path d="M205.767 47.8315C205.258 47.8315 204.894 47.8315 204.64 47.7951V45.611C204.822 45.611 205.04 45.611 205.294 45.611C205.985 45.611 206.457 45.3198 206.748 44.7374C207.038 44.155 207.184 43.2085 207.184 41.9345V35.3822H216.667V47.7587H214.196V37.6755H209.618V42.2985C209.618 43.3905 209.545 44.3006 209.364 45.0286C209.182 45.7566 208.928 46.339 208.564 46.7395C208.201 47.1399 207.801 47.4311 207.365 47.5767C206.893 47.7587 206.348 47.8315 205.767 47.8315Z" fill="black"/>
<path d="M229.13 35.3458H230.438V47.7951H227.967V39.9688L220.628 47.8679H219.32V35.4186H221.79V43.2813L229.13 35.3458Z" fill="black"/>
<path d="M233.127 47.7952V35.4187H235.598V40.9517H241.266V35.4187H243.701V47.7952H241.266V43.245H235.598V47.7952H233.127Z" fill="black"/>
<path d="M256.164 35.3458H257.472V47.7951H255.001V39.9688L247.661 47.8679H246.353V35.4186H248.824V43.2813L256.164 35.3458Z" fill="black"/>
<path d="M271.207 47.7952H267.973L262.631 42.0074V47.7952H260.161V35.4187H262.631V41.2065L267.5 35.4187H270.589L265.32 41.4613L271.207 47.7952Z" fill="black"/>
<path d="M282.507 47.7951L281.417 45.429H276.003L274.949 47.7951H272.26L277.929 35.3458H279.527L285.196 47.7951H282.507ZM278.728 38.622L277.783 41.1701L276.875 43.3541H280.617L279.709 41.1701L278.728 38.622Z" fill="black"/>
<path d="M146.794 68.5803V62.4285H147.557V68.5803H146.794Z" fill="black"/>
<path d="M154.388 62.4285H155.115V68.6532H154.752L150.61 63.8482V68.5804H149.883V62.3557H150.246L154.388 67.1607V62.4285Z" fill="black"/>
<path d="M158.967 68.5803V63.1201H156.859V62.4285H161.837V63.1201H159.73V68.5803H158.967Z" fill="black"/>
<path d="M163.581 68.5803V62.4285H167.76V63.1201H164.308V65.195H167.215V65.8866H164.308V67.9251H167.942V68.6167H163.581V68.5803Z" fill="black"/>
<path d="M174.591 68.5803H173.682L172.265 66.5783C172.193 66.5783 172.084 66.5783 171.902 66.5783H170.449V68.5439H169.722V62.3921H172.156C172.883 62.3921 173.464 62.5741 173.828 62.9381C174.228 63.3021 174.409 63.8117 174.409 64.467C174.409 65.4862 173.973 66.105 173.065 66.3962L174.591 68.5803ZM171.829 65.923C172.411 65.923 172.847 65.8138 173.137 65.559C173.428 65.3042 173.61 64.9766 173.61 64.5034C173.61 64.0302 173.464 63.7025 173.21 63.4477C172.956 63.2293 172.556 63.0837 172.011 63.0837H170.412V65.8866H171.829V65.923Z" fill="black"/>
<path d="M180.949 62.4285H181.676V68.6532H181.313L177.171 63.8482V68.5804H176.444V62.3557H176.807L180.949 67.1607V62.4285Z" fill="black"/>
<path d="M188.544 68.5804L187.853 67.0879H184.801L184.147 68.5804H183.348L186.145 62.3557H186.582L189.379 68.5804H188.544ZM186.327 63.5206L185.746 64.831L185.092 66.3963H187.526L186.872 64.831L186.327 63.5206Z" fill="black"/>
<path d="M191.814 68.5803V63.1201H189.67V62.4285H194.648V63.1201H192.54V68.5803H191.814Z" fill="black"/>
<path d="M196.428 68.5803V62.4285H197.192V68.5803H196.428Z" fill="black"/>
<path d="M202.424 68.6895C201.479 68.6895 200.716 68.3983 200.098 67.8158C199.48 67.2334 199.19 66.469 199.19 65.4861C199.19 64.5397 199.48 63.7753 200.062 63.1928C200.643 62.6104 201.442 62.3192 202.424 62.3192C203.368 62.3192 204.131 62.6104 204.749 63.1928C205.367 63.7753 205.657 64.5397 205.657 65.5225C205.657 66.469 205.367 67.2334 204.749 67.8158C204.131 68.3983 203.405 68.6895 202.424 68.6895ZM202.424 67.9978C203.15 67.9978 203.732 67.7794 204.204 67.3062C204.676 66.833 204.894 66.2506 204.894 65.4861C204.894 64.7581 204.676 64.1393 204.204 63.6661C203.732 63.1929 203.15 62.9744 202.387 62.9744C201.66 62.9744 201.079 63.1929 200.607 63.6661C200.134 64.1393 199.916 64.7217 199.916 65.4861C199.916 66.2142 200.134 66.7966 200.607 67.2698C201.079 67.7794 201.66 67.9978 202.424 67.9978Z" fill="black"/>
<path d="M212.162 62.4285H212.888V68.6532H212.525L208.383 63.8482V68.5804H207.656V62.3557H208.019L212.162 67.1607V62.4285Z" fill="black"/>
<path d="M219.755 68.5804L219.101 67.0879H216.049L215.395 68.5804H214.596L217.394 62.3557H217.83L220.627 68.5804H219.755ZM217.539 63.5206L216.957 64.831L216.303 66.3963H218.738L218.084 64.831L217.539 63.5206Z" fill="black"/>
<path d="M222.19 68.5803V62.4285H222.917V67.8887H226.514V68.5803H222.19Z" fill="black"/>
<path d="M234.871 65.3406C235.779 65.5226 236.252 66.0322 236.252 66.7967C236.252 67.3791 236.07 67.8159 235.743 68.1071C235.416 68.3983 234.871 68.5439 234.108 68.5439H231.238V62.3921H233.817C234.471 62.3921 234.944 62.5377 235.307 62.7925C235.67 63.0473 235.816 63.4477 235.816 63.9573C235.779 64.7218 235.489 65.1586 234.871 65.3406ZM231.964 63.0837V65.0858H233.672C234.144 65.0858 234.471 65.013 234.689 64.831C234.907 64.649 235.016 64.3942 235.016 64.0302C235.016 63.7389 234.907 63.4841 234.689 63.3385C234.471 63.1929 234.181 63.1201 233.781 63.1201H231.964V63.0837ZM234.108 67.8887C234.58 67.8887 234.944 67.8159 235.162 67.6339C235.38 67.4519 235.489 67.1971 235.489 66.8331C235.489 66.1414 234.944 65.7774 233.89 65.7774H232.001V67.8887H234.108Z" fill="black"/>
<path d="M238.177 68.5803V62.4285H238.941V68.5803H238.177Z" fill="black"/>
<path d="M244.173 68.6895C243.228 68.6895 242.465 68.3983 241.847 67.8158C241.23 67.2334 240.939 66.469 240.939 65.4861C240.939 64.5397 241.23 63.7753 241.811 63.1928C242.392 62.6104 243.192 62.3192 244.173 62.3192C245.118 62.3192 245.881 62.6104 246.498 63.1928C247.116 63.7753 247.407 64.5397 247.407 65.5225C247.407 66.469 247.116 67.2334 246.498 67.8158C245.881 68.3983 245.154 68.6895 244.173 68.6895ZM244.173 67.9978C244.9 67.9978 245.481 67.7794 245.953 67.3062C246.426 66.8694 246.644 66.2506 246.644 65.4861C246.644 64.7581 246.426 64.1393 245.953 63.6661C245.481 63.1929 244.9 62.9744 244.136 62.9744C243.41 62.9744 242.828 63.1929 242.356 63.6661C241.884 64.1393 241.666 64.7217 241.666 65.4861C241.666 66.2142 241.884 66.7966 242.356 67.2698C242.828 67.743 243.41 67.9978 244.173 67.9978Z" fill="black"/>
<path d="M255.219 68.6896C254.274 68.6896 253.511 68.3984 252.966 67.8159C252.384 67.2335 252.094 66.4691 252.094 65.4862C252.094 64.5034 252.384 63.739 252.966 63.1929C253.547 62.6469 254.274 62.3557 255.219 62.3557C256.345 62.3557 257.217 62.7561 257.871 63.5206L257.29 63.9938C256.781 63.3386 256.091 63.0109 255.219 63.0109C254.528 63.0109 253.947 63.2293 253.511 63.6662C253.075 64.103 252.857 64.7218 252.857 65.4862C252.857 66.2507 253.075 66.8695 253.511 67.3427C253.947 67.8159 254.528 68.0343 255.219 68.0343C256.091 68.0343 256.781 67.7067 257.29 67.0515L257.871 67.5247C257.253 68.2892 256.381 68.6896 255.219 68.6896Z" fill="black"/>
<path d="M259.688 68.5803V62.4285H260.415V67.8887H264.012V68.5803H259.688Z" fill="black"/>
<path d="M265.72 68.5803V62.4285H266.483V68.5803H265.72Z" fill="black"/>
<path d="M273.314 62.4285H274.04V68.6532H273.677L269.535 63.8482V68.5804H268.808V62.3557H269.171L273.314 67.1607V62.4285Z" fill="black"/>
<path d="M276.329 68.5803V62.4285H277.092V68.5803H276.329Z" fill="black"/>
<path d="M282.252 68.6896C281.308 68.6896 280.545 68.3984 279.999 67.8159C279.418 67.2335 279.127 66.4691 279.127 65.4862C279.127 64.5034 279.418 63.739 279.999 63.1929C280.581 62.6469 281.308 62.3557 282.252 62.3557C283.379 62.3557 284.251 62.7561 284.905 63.5206L284.323 63.9938C283.815 63.3386 283.124 63.0109 282.252 63.0109C281.562 63.0109 280.981 63.2293 280.545 63.6662C280.109 64.103 279.891 64.7218 279.891 65.4862C279.891 66.2507 280.109 66.8695 280.545 67.3427C280.981 67.8159 281.562 68.0343 282.252 68.0343C283.124 68.0343 283.815 67.7067 284.323 67.0515L284.905 67.5247C284.251 68.2892 283.379 68.6896 282.252 68.6896Z" fill="black"/>
<rect x="133.896" y="14.5606" width="1" height="53.8742" fill="black"/>
</svg>
